<svg xmlns="http://www.w3.org/2000/svg" width="128" height="128" viewBox="0 0 128 128" role="img" aria-label="Default quail image">
  <rect width="128" height="128" rx="28" fill="#f5e6d3"/>
  <circle cx="64" cy="62" r="34" fill="#92400e" opacity="0.14"/>
  <path d="M36 68c8-22 33-32 53-17 10 8 14 20 9 31-7 15-29 18-47 9-10-5-16-13-15-23Z" fill="#92400e"/>
  <path d="M80 47c10 1 20 7 27 16-10 1-19-1-27-6V47Z" fill="#92400e" opacity="0.85"/>
  <circle cx="63" cy="56" r="4" fill="#fff"/>
  <circle cx="64" cy="56" r="2" fill="#111827"/>
  <path d="M42 78c12 8 31 11 47 4" fill="none" stroke="#fff" stroke-width="5" stroke-linecap="round" opacity="0.55"/>
  <text x="64" y="112" text-anchor="middle" font-family="Arial, sans-serif" font-size="18" font-weight="700" fill="#92400e" opacity="0.8">Q</text>
</svg>
